<svg width="1128" height="100" viewBox="0 0 1128 100" fill="none" xmlns="http://www.w3.org/2000/svg">
<path d="M35.1254 0L32.6799 7.49355C30.0161 8.61089 27.3522 9.72821 24.6888 10.8463C21.8626 10.269 19.0293 9.60033 16.1654 9.2653C15.7133 9.75876 4.27434 26.8218 4.27757 26.9981C4.8046 28.2497 5.70965 29.3264 6.3942 30.4977L48 44.6724L89.6058 30.4977C90.2904 29.3264 91.1954 28.2497 91.7224 26.9981C91.7246 26.8218 80.2867 9.75876 79.8346 9.2653C76.9707 9.60033 74.1374 10.269 71.3112 10.8463C68.6477 9.72821 65.9839 8.61089 63.3201 7.49355L60.8746 0H35.1254ZM9.56284 35.653C9.51131 35.6377 9.40756 35.7122 9.40371 35.7375C8.90257 39.7007 7.92317 47.6299 7.92317 47.6299L10.4583 58.2595L29.6375 66.7108L47.9999 60.0507L66.3623 66.7108L85.5415 58.2595L88.0766 47.6299C88.0766 47.6299 87.0972 39.7007 86.5961 35.7375C86.5916 35.7037 86.4085 35.5813 86.4085 35.705C73.853 40.0338 60.7561 44.2261 47.9998 48.4959C35.2435 44.2261 22.1466 40.0338 9.59107 35.705C9.59107 35.6741 9.58001 35.6585 9.56284 35.653ZM19.2085 45.1269C25.2324 47.1423 31.3055 49.1438 37.3784 51.145C37.2871 51.7623 37.1332 52.3693 36.9189 52.9573C36.0206 55.3164 34.1927 57.2329 31.8372 58.2851C29.4818 59.3373 26.7918 59.439 24.359 58.5679C21.9263 57.6968 19.95 55.9241 18.865 53.64C17.78 51.3559 17.675 48.7473 18.5733 46.3881C18.7526 45.9531 18.965 45.5315 19.2085 45.1269ZM76.7915 45.1269C77.0351 45.5315 77.2474 45.9531 77.4267 46.3881C78.325 48.7473 78.2201 51.3559 77.135 53.64C76.05 55.9242 74.0737 57.6968 71.6409 58.5679C69.2082 59.439 66.5182 59.3372 64.1627 58.2851C61.8073 57.2329 59.9794 55.3164 59.081 52.9573C58.8668 52.3693 58.7129 51.7623 58.6216 51.145C64.6945 49.1438 70.7677 47.1423 76.7915 45.1269ZM4.60567 51.8543L0 56.28L6.89971 79.7419L28.7069 88.4164L27.5335 70.165L6.85283 60.8323L4.60567 51.8543ZM91.3943 51.8543L89.1472 60.8323L68.4665 70.165L67.2931 88.4164L89.1003 79.7419L96 56.28L91.3943 51.8543ZM48 63.9392L31.6471 70.2153L32.6397 89.9316L48 96L63.3603 89.9316L64.3529 70.2153L48 63.9392Z" fill="url(#paint0_linear_327_2)"/>
<path d="M111.2 82V36.88H119.84V44.848C121.056 42.032 122.752 39.92 124.928 38.512C127.168 37.04 129.664 36.304 132.416 36.304C133.312 36.304 134.112 36.368 134.816 36.496C135.584 36.56 136.16 36.688 136.544 36.88V45.424C135.712 45.232 134.848 45.104 133.952 45.04C133.12 44.912 132.288 44.848 131.456 44.848C128.256 44.848 125.568 46.192 123.392 48.88C121.28 51.504 120.224 55.28 120.224 60.208V82H111.2ZM163.409 82.96C158.865 82.96 154.769 82.064 151.121 80.272C147.537 78.416 144.689 75.76 142.577 72.304C140.465 68.784 139.409 64.496 139.409 59.44C139.409 54.64 140.401 50.48 142.385 46.96C144.433 43.44 147.153 40.72 150.545 38.8C154.001 36.88 157.841 35.92 162.065 35.92C166.481 35.92 170.321 36.784 173.585 38.512C176.849 40.24 179.345 42.576 181.073 45.52C182.865 48.4 183.761 51.696 183.761 55.408C183.761 56.496 183.601 57.68 183.281 58.96C183.025 60.24 182.673 61.264 182.225 62.032H148.625C148.945 64.912 149.745 67.344 151.025 69.328C152.369 71.248 154.161 72.72 156.401 73.744C158.641 74.704 161.233 75.184 164.177 75.184C167.121 75.184 169.713 74.736 171.953 73.84C174.257 72.944 176.465 71.696 178.577 70.096L181.841 76.72C179.345 78.768 176.529 80.336 173.393 81.424C170.321 82.448 166.993 82.96 163.409 82.96ZM148.625 55.12H174.449C174.513 54.928 174.545 54.768 174.545 54.64C174.545 54.512 174.545 54.352 174.545 54.16C174.545 51.984 174.097 50.128 173.201 48.592C172.305 46.992 170.961 45.744 169.169 44.848C167.377 43.952 165.105 43.504 162.353 43.504C160.113 43.504 158.033 43.984 156.113 44.944C154.257 45.84 152.657 47.152 151.313 48.88C150.033 50.544 149.137 52.624 148.625 55.12ZM212.808 82.96C208.712 82.96 205.032 82 201.768 80.08C198.504 78.16 195.912 75.44 193.992 71.92C192.136 68.4 191.208 64.24 191.208 59.44C191.208 54.576 192.136 50.416 193.992 46.96C195.912 43.44 198.504 40.72 201.768 38.8C205.032 36.88 208.712 35.92 212.808 35.92C216.392 35.92 219.528 36.624 222.216 38.032C224.904 39.376 226.984 41.2 228.456 43.504V17.872H237.48V82H228.84V74.8C227.432 77.232 225.352 79.216 222.6 80.752C219.848 82.224 216.584 82.96 212.808 82.96ZM214.632 75.088C217.448 75.088 219.912 74.448 222.024 73.168C224.136 71.888 225.8 70.096 227.016 67.792C228.232 65.424 228.84 62.64 228.84 59.44C228.84 56.24 228.232 53.488 227.016 51.184C225.8 48.816 224.136 46.992 222.024 45.712C219.912 44.432 217.48 43.792 214.728 43.792C211.912 43.792 209.416 44.432 207.24 45.712C205.128 46.992 203.464 48.816 202.248 51.184C201.096 53.488 200.52 56.24 200.52 59.44C200.52 62.64 201.128 65.424 202.344 67.792C203.56 70.096 205.224 71.888 207.336 73.168C209.448 74.448 211.88 75.088 214.632 75.088ZM271.123 82.96C266.515 82.96 262.419 82 258.835 80.08C255.251 78.096 252.467 75.344 250.483 71.824C248.499 68.304 247.507 64.176 247.507 59.44C247.507 54.704 248.499 50.576 250.483 47.056C252.467 43.536 255.251 40.816 258.835 38.896C262.419 36.912 266.515 35.92 271.123 35.92C275.795 35.92 279.891 36.912 283.411 38.896C286.995 40.816 289.779 43.536 291.763 47.056C293.747 50.576 294.739 54.704 294.739 59.44C294.739 64.176 293.747 68.304 291.763 71.824C289.779 75.344 286.995 78.096 283.411 80.08C279.891 82 275.795 82.96 271.123 82.96ZM271.123 75.088C274.003 75.088 276.531 74.448 278.707 73.168C280.883 71.888 282.547 70.096 283.699 67.792C284.915 65.424 285.523 62.64 285.523 59.44C285.523 56.24 284.915 53.488 283.699 51.184C282.547 48.816 280.883 46.992 278.707 45.712C276.531 44.432 274.003 43.792 271.123 43.792C268.243 43.792 265.715 44.432 263.539 45.712C261.363 46.992 259.667 48.816 258.451 51.184C257.299 53.488 256.723 56.24 256.723 59.44C256.723 62.64 257.299 65.424 258.451 67.792C259.667 70.096 261.363 71.888 263.539 73.168C265.715 74.448 268.243 75.088 271.123 75.088ZM323.524 82.576C318.852 82.576 315.364 81.488 313.06 79.312C310.82 77.072 309.7 73.616 309.7 68.944V44.56H299.812V36.88H309.7V24.016H318.724V36.88H330.436V44.56H318.724V68.176C318.724 70.416 319.268 72.112 320.356 73.264C321.444 74.352 323.108 74.896 325.348 74.896C326.116 74.896 327.012 74.864 328.036 74.8C329.06 74.736 329.86 74.64 330.436 74.512V81.808C329.604 82.064 328.548 82.256 327.268 82.384C326.052 82.512 324.804 82.576 323.524 82.576ZM382.184 82.96C377.64 82.96 373.544 82.064 369.896 80.272C366.312 78.416 363.464 75.76 361.352 72.304C359.24 68.784 358.184 64.496 358.184 59.44C358.184 54.64 359.176 50.48 361.16 46.96C363.208 43.44 365.928 40.72 369.32 38.8C372.776 36.88 376.616 35.92 380.84 35.92C385.256 35.92 389.096 36.784 392.36 38.512C395.624 40.24 398.12 42.576 399.848 45.52C401.64 48.4 402.536 51.696 402.536 55.408C402.536 56.496 402.376 57.68 402.056 58.96C401.8 60.24 401.448 61.264 401 62.032H367.4C367.72 64.912 368.52 67.344 369.8 69.328C371.144 71.248 372.936 72.72 375.176 73.744C377.416 74.704 380.008 75.184 382.952 75.184C385.896 75.184 388.488 74.736 390.728 73.84C393.032 72.944 395.24 71.696 397.352 70.096L400.616 76.72C398.12 78.768 395.304 80.336 392.168 81.424C389.096 82.448 385.768 82.96 382.184 82.96ZM367.4 55.12H393.224C393.288 54.928 393.32 54.768 393.32 54.64C393.32 54.512 393.32 54.352 393.32 54.16C393.32 51.984 392.872 50.128 391.976 48.592C391.08 46.992 389.736 45.744 387.944 44.848C386.152 43.952 383.88 43.504 381.128 43.504C378.888 43.504 376.808 43.984 374.888 44.944C373.032 45.84 371.432 47.152 370.088 48.88C368.808 50.544 367.912 52.624 367.4 55.12ZM401.866 82L419.146 58.672L402.826 36.88H413.194L424.906 53.104L436.618 36.88H446.986L430.666 58.672L447.946 82H437.578L424.906 64.816L412.234 82H401.866ZM455.746 99.472V36.88H464.386V44.08C465.794 41.648 467.874 39.696 470.626 38.224C473.378 36.688 476.642 35.92 480.418 35.92C484.514 35.92 488.194 36.88 491.458 38.8C494.722 40.72 497.282 43.44 499.138 46.96C501.058 50.416 502.018 54.576 502.018 59.44C502.018 64.24 501.058 68.4 499.138 71.92C497.282 75.44 494.722 78.16 491.458 80.08C488.194 82 484.514 82.96 480.418 82.96C476.834 82.96 473.698 82.288 471.01 80.944C468.322 79.536 466.242 77.68 464.77 75.376V99.472H455.746ZM478.594 75.088C481.346 75.088 483.778 74.448 485.89 73.168C488.002 71.888 489.666 70.096 490.882 67.792C492.098 65.424 492.706 62.64 492.706 59.44C492.706 56.24 492.098 53.488 490.882 51.184C489.73 48.816 488.066 46.992 485.89 45.712C483.778 44.432 481.346 43.792 478.594 43.792C475.778 43.792 473.314 44.432 471.202 45.712C469.09 46.992 467.426 48.816 466.21 51.184C464.994 53.488 464.386 56.24 464.386 59.44C464.386 62.64 464.994 65.424 466.21 67.792C467.426 70.096 469.09 71.888 471.202 73.168C473.314 74.448 475.778 75.088 478.594 75.088ZM533.549 82.96C529.005 82.96 524.909 82.064 521.261 80.272C517.677 78.416 514.829 75.76 512.717 72.304C510.605 68.784 509.549 64.496 509.549 59.44C509.549 54.64 510.541 50.48 512.525 46.96C514.573 43.44 517.293 40.72 520.685 38.8C524.141 36.88 527.981 35.92 532.205 35.92C536.621 35.92 540.461 36.784 543.725 38.512C546.989 40.24 549.485 42.576 551.213 45.52C553.005 48.4 553.901 51.696 553.901 55.408C553.901 56.496 553.741 57.68 553.421 58.96C553.165 60.24 552.813 61.264 552.365 62.032H518.765C519.085 64.912 519.885 67.344 521.165 69.328C522.509 71.248 524.301 72.72 526.541 73.744C528.781 74.704 531.373 75.184 534.317 75.184C537.261 75.184 539.853 74.736 542.093 73.84C544.397 72.944 546.605 71.696 548.717 70.096L551.981 76.72C549.485 78.768 546.669 80.336 543.533 81.424C540.461 82.448 537.133 82.96 533.549 82.96ZM518.765 55.12H544.589C544.653 54.928 544.685 54.768 544.685 54.64C544.685 54.512 544.685 54.352 544.685 54.16C544.685 51.984 544.237 50.128 543.341 48.592C542.445 46.992 541.101 45.744 539.309 44.848C537.517 43.952 535.245 43.504 532.493 43.504C530.253 43.504 528.173 43.984 526.253 44.944C524.397 45.84 522.797 47.152 521.453 48.88C520.173 50.544 519.277 52.624 518.765 55.12ZM563.844 82V36.88H572.484V44.848C573.7 42.032 575.396 39.92 577.572 38.512C579.812 37.04 582.308 36.304 585.06 36.304C585.956 36.304 586.756 36.368 587.46 36.496C588.228 36.56 588.804 36.688 589.188 36.88V45.424C588.356 45.232 587.492 45.104 586.596 45.04C585.764 44.912 584.932 44.848 584.1 44.848C580.9 44.848 578.212 46.192 576.036 48.88C573.924 51.504 572.868 55.28 572.868 60.208V82H563.844ZM597.549 82V36.88H606.573V82H597.549ZM601.965 27.568C600.365 27.568 599.053 27.088 598.029 26.128C597.069 25.168 596.589 23.92 596.589 22.384C596.589 20.848 597.069 19.632 598.029 18.736C599.053 17.776 600.365 17.296 601.965 17.296C603.629 17.296 604.973 17.776 605.997 18.736C607.021 19.632 607.533 20.848 607.533 22.384C607.533 23.92 607.021 25.168 605.997 26.128C604.973 27.088 603.629 27.568 601.965 27.568ZM618.972 82V36.88H627.612V42.928C628.892 40.688 630.652 38.96 632.892 37.744C635.196 36.528 637.948 35.92 641.148 35.92C644.348 35.92 647.068 36.624 649.308 38.032C651.612 39.376 653.34 41.264 654.492 43.696C655.9 41.136 657.916 39.216 660.54 37.936C663.164 36.592 666.172 35.92 669.564 35.92C674.684 35.92 678.684 37.392 681.564 40.336C684.508 43.28 685.98 47.888 685.98 54.16V82H676.956V55.312C676.956 51.28 676.156 48.368 674.556 46.576C673.02 44.72 670.748 43.792 667.74 43.792C664.22 43.792 661.532 45.136 659.676 47.824C657.884 50.512 656.988 54.192 656.988 58.864V82H647.868V55.312C647.868 51.28 647.068 48.368 645.468 46.576C643.932 44.72 641.66 43.792 638.652 43.792C635.132 43.792 632.476 45.136 630.684 47.824C628.892 50.512 627.996 54.192 627.996 58.864V82H618.972ZM719.931 82.96C715.387 82.96 711.291 82.064 707.643 80.272C704.059 78.416 701.211 75.76 699.099 72.304C696.987 68.784 695.931 64.496 695.931 59.44C695.931 54.64 696.923 50.48 698.907 46.96C700.955 43.44 703.675 40.72 707.067 38.8C710.523 36.88 714.363 35.92 718.587 35.92C723.003 35.92 726.843 36.784 730.107 38.512C733.371 40.24 735.867 42.576 737.595 45.52C739.387 48.4 740.283 51.696 740.283 55.408C740.283 56.496 740.123 57.68 739.803 58.96C739.547 60.24 739.195 61.264 738.747 62.032H705.147C705.467 64.912 706.267 67.344 707.547 69.328C708.891 71.248 710.683 72.72 712.923 73.744C715.163 74.704 717.755 75.184 720.699 75.184C723.643 75.184 726.235 74.736 728.475 73.84C730.779 72.944 732.987 71.696 735.099 70.096L738.363 76.72C735.867 78.768 733.051 80.336 729.915 81.424C726.843 82.448 723.515 82.96 719.931 82.96ZM705.147 55.12H730.971C731.035 54.928 731.067 54.768 731.067 54.64C731.067 54.512 731.067 54.352 731.067 54.16C731.067 51.984 730.619 50.128 729.723 48.592C728.827 46.992 727.483 45.744 725.691 44.848C723.899 43.952 721.627 43.504 718.875 43.504C716.635 43.504 714.555 43.984 712.635 44.944C710.779 45.84 709.179 47.152 707.835 48.88C706.555 50.544 705.659 52.624 705.147 55.12ZM750.226 82V36.88H758.866V43.6C760.21 41.232 762.162 39.376 764.722 38.032C767.282 36.624 770.386 35.92 774.034 35.92C779.218 35.92 783.25 37.392 786.13 40.336C789.074 43.28 790.546 47.888 790.546 54.16V82H781.522V55.312C781.522 51.28 780.69 48.368 779.026 46.576C777.426 44.72 774.962 43.792 771.634 43.792C767.666 43.792 764.594 45.136 762.418 47.824C760.306 50.512 759.25 54.192 759.25 58.864V82H750.226ZM819.435 82.576C814.763 82.576 811.275 81.488 808.971 79.312C806.731 77.072 805.611 73.616 805.611 68.944V44.56H795.723V36.88H805.611V24.016H814.635V36.88H826.347V44.56H814.635V68.176C814.635 70.416 815.179 72.112 816.267 73.264C817.355 74.352 819.019 74.896 821.259 74.896C822.027 74.896 822.923 74.864 823.947 74.8C824.971 74.736 825.771 74.64 826.347 74.512V81.808C825.515 82.064 824.459 82.256 823.179 82.384C821.963 82.512 820.715 82.576 819.435 82.576ZM849.659 82.96C846.331 82.96 843.387 82.448 840.827 81.424C838.331 80.336 836.379 78.8 834.971 76.816C833.563 74.768 832.859 72.336 832.859 69.52C832.859 66.64 833.563 64.24 834.971 62.32C836.379 60.4 838.363 58.896 840.923 57.808C843.483 56.72 846.395 55.984 849.659 55.6L865.595 53.584C865.211 50.192 863.931 47.696 861.755 46.096C859.579 44.496 856.891 43.696 853.691 43.696C851.515 43.696 849.243 44.144 846.875 45.04C844.571 45.872 842.107 47.216 839.483 49.072L836.123 42.256C838.619 40.272 841.371 38.736 844.379 37.648C847.387 36.496 850.523 35.92 853.787 35.92C860.699 35.92 865.915 37.488 869.435 40.624C872.955 43.76 874.715 48.4 874.715 54.544V82H866.075V75.472C864.411 77.968 862.171 79.856 859.355 81.136C856.603 82.352 853.371 82.96 849.659 82.96ZM851.771 75.376C854.779 75.376 857.307 74.768 859.355 73.552C861.467 72.336 863.035 70.736 864.059 68.752C865.147 66.768 865.691 64.688 865.691 62.512V60.496L852.251 62.224C848.923 62.672 846.395 63.408 844.667 64.432C842.939 65.392 842.075 66.96 842.075 69.136C842.075 71.12 842.907 72.656 844.571 73.744C846.299 74.832 848.699 75.376 851.771 75.376ZM887.154 82V17.872H896.178V82H887.154Z" fill="black"/>
<path d="M948.918 82.96C944.822 82.96 941.142 82 937.878 80.08C934.614 78.16 932.022 75.44 930.102 71.92C928.246 68.4 927.318 64.24 927.318 59.44C927.318 54.576 928.246 50.416 930.102 46.96C932.022 43.44 934.614 40.72 937.878 38.8C941.142 36.88 944.822 35.92 948.918 35.92C952.502 35.92 955.638 36.624 958.326 38.032C961.014 39.376 963.094 41.2 964.566 43.504V17.872H973.59V82H964.95V74.8C963.542 77.232 961.462 79.216 958.71 80.752C955.958 82.224 952.694 82.96 948.918 82.96ZM950.742 75.088C953.558 75.088 956.022 74.448 958.134 73.168C960.246 71.888 961.91 70.096 963.126 67.792C964.342 65.424 964.95 62.64 964.95 59.44C964.95 56.24 964.342 53.488 963.126 51.184C961.91 48.816 960.246 46.992 958.134 45.712C956.022 44.432 953.59 43.792 950.838 43.792C948.022 43.792 945.526 44.432 943.35 45.712C941.238 46.992 939.574 48.816 938.358 51.184C937.206 53.488 936.63 56.24 936.63 59.44C936.63 62.64 937.238 65.424 938.454 67.792C939.67 70.096 941.334 71.888 943.446 73.168C945.558 74.448 947.99 75.088 950.742 75.088ZM1007.23 82.96C1002.62 82.96 998.528 82 994.944 80.08C991.36 78.096 988.576 75.344 986.592 71.824C984.608 68.304 983.616 64.176 983.616 59.44C983.616 54.704 984.608 50.576 986.592 47.056C988.576 43.536 991.36 40.816 994.944 38.896C998.528 36.912 1002.62 35.92 1007.23 35.92C1011.9 35.92 1016 36.912 1019.52 38.896C1023.1 40.816 1025.89 43.536 1027.87 47.056C1029.86 50.576 1030.85 54.704 1030.85 59.44C1030.85 64.176 1029.86 68.304 1027.87 71.824C1025.89 75.344 1023.1 78.096 1019.52 80.08C1016 82 1011.9 82.96 1007.23 82.96ZM1007.23 75.088C1010.11 75.088 1012.64 74.448 1014.82 73.168C1016.99 71.888 1018.66 70.096 1019.81 67.792C1021.02 65.424 1021.63 62.64 1021.63 59.44C1021.63 56.24 1021.02 53.488 1019.81 51.184C1018.66 48.816 1016.99 46.992 1014.82 45.712C1012.64 44.432 1010.11 43.792 1007.23 43.792C1004.35 43.792 1001.82 44.432 999.648 45.712C997.472 46.992 995.776 48.816 994.56 51.184C993.408 53.488 992.832 56.24 992.832 59.44C992.832 62.64 993.408 65.424 994.56 67.792C995.776 70.096 997.472 71.888 999.648 73.168C1001.82 74.448 1004.35 75.088 1007.23 75.088ZM1061.94 82.96C1057.33 82.96 1053.23 82 1049.65 80.08C1046.07 78.096 1043.28 75.344 1041.3 71.824C1039.31 68.304 1038.32 64.176 1038.32 59.44C1038.32 54.704 1039.31 50.576 1041.3 47.056C1043.28 43.536 1046.07 40.816 1049.65 38.896C1053.23 36.912 1057.33 35.92 1061.94 35.92C1065.2 35.92 1068.15 36.4 1070.77 37.36C1073.46 38.32 1075.86 39.664 1077.97 41.392L1074.71 48.208C1072.66 46.736 1070.55 45.648 1068.37 44.944C1066.19 44.176 1064.05 43.792 1061.94 43.792C1059.06 43.792 1056.53 44.432 1054.35 45.712C1052.18 46.992 1050.48 48.784 1049.27 51.088C1048.11 53.392 1047.54 56.176 1047.54 59.44C1047.54 62.704 1048.11 65.488 1049.27 67.792C1050.48 70.096 1052.18 71.888 1054.35 73.168C1056.53 74.448 1059.06 75.088 1061.94 75.088C1064.05 75.088 1066.19 74.736 1068.37 74.032C1070.55 73.264 1072.66 72.144 1074.71 70.672L1077.97 77.488C1075.86 79.216 1073.46 80.56 1070.77 81.52C1068.15 82.48 1065.2 82.96 1061.94 82.96ZM1103.4 82.96C1099.94 82.96 1096.71 82.448 1093.7 81.424C1090.69 80.336 1087.78 78.8 1084.96 76.816L1088.71 69.712C1091.52 71.632 1094.12 73.072 1096.48 74.032C1098.85 74.928 1101.22 75.376 1103.59 75.376C1106.85 75.376 1109.28 74.896 1110.88 73.936C1112.55 72.912 1113.38 71.408 1113.38 69.424C1113.38 67.76 1112.87 66.544 1111.84 65.776C1110.88 64.944 1109.16 64.304 1106.66 63.856L1098.98 62.416C1094.82 61.648 1091.68 60.272 1089.57 58.288C1087.46 56.24 1086.4 53.616 1086.4 50.416C1086.4 47.792 1087.04 45.392 1088.32 43.216C1089.67 40.976 1091.65 39.216 1094.28 37.936C1096.9 36.592 1100.2 35.92 1104.16 35.92C1107.43 35.92 1110.5 36.4 1113.38 37.36C1116.26 38.32 1118.85 39.632 1121.16 41.296L1117.51 48.112C1115.52 46.768 1113.44 45.68 1111.27 44.848C1109.09 43.952 1106.82 43.504 1104.45 43.504C1101.7 43.504 1099.52 43.984 1097.92 44.944C1096.39 45.84 1095.62 47.312 1095.62 49.36C1095.62 50.704 1096.1 51.76 1097.06 52.528C1098.02 53.232 1099.62 53.808 1101.86 54.256L1109.54 55.696C1113.76 56.464 1117 57.84 1119.24 59.824C1121.48 61.808 1122.6 64.688 1122.6 68.464C1122.6 72.688 1120.96 76.176 1117.7 78.928C1114.44 81.616 1109.67 82.96 1103.4 82.96Z" fill="url(#paint1_linear_327_2)"/>
<defs>
<linearGradient id="paint0_linear_327_2" x1="15.2872" y1="10.7408" x2="114.684" y2="116.357" gradientUnits="userSpaceOnUse">
<stop stop-color="#FF1300"/>
<stop offset="1" stop-color="#FF6E01"/>
</linearGradient>
<linearGradient id="paint1_linear_327_2" x1="267.064" y1="10.7408" x2="284.5" y2="208.362" gradientUnits="userSpaceOnUse">
<stop stop-color="#FF1300"/>
<stop offset="1" stop-color="#FF6E01"/>
</linearGradient>
</defs>
</svg>
