<svg width="1210" height="120" viewBox="0 0 1210 120" fill="none" xmlns="http://www.w3.org/2000/svg">
<path d="M42.7347 18L40.5949 24.5569C38.2641 25.5345 35.9332 26.5122 33.6027 27.4905C31.1298 26.9854 28.6506 26.4003 26.1448 26.1071C25.7492 26.5389 15.74 41.4691 15.7429 41.6233C16.204 42.7185 16.9959 43.6606 17.5949 44.6855L54 57.0884L90.4051 44.6855C91.0041 43.6606 91.796 42.7185 92.2571 41.6233C92.2591 41.4691 82.2508 26.5389 81.8552 26.1071C79.3494 26.4003 76.8702 26.9854 74.3973 27.4905C72.0668 26.5122 69.7359 25.5345 67.4051 24.5569L65.2653 18H42.7347ZM20.3675 49.1964C20.3224 49.183 20.2316 49.2482 20.2283 49.2703C19.7897 52.7381 18.9328 59.6762 18.9328 59.6762L21.151 68.9771L37.9328 76.3719L53.9999 70.5444L70.067 76.3719L86.8488 68.9771L89.0671 59.6762C89.0671 59.6762 88.2101 52.7381 87.7716 49.2703C87.7676 49.2407 87.6074 49.1337 87.6074 49.2419C76.6214 53.0296 65.1616 56.6979 53.9998 60.4339C42.838 56.6979 31.3783 53.0296 20.3922 49.2419C20.3922 49.2148 20.3825 49.2012 20.3675 49.1964ZM28.8075 57.4861C34.0783 59.2495 39.3923 61.0008 44.7061 62.7519C44.6262 63.292 44.4915 63.8231 44.3041 64.3376C43.518 66.4019 41.9186 68.0788 39.8576 68.9994C37.7966 69.9201 35.4429 70.0091 33.3142 69.2469C31.1855 68.4847 29.4563 66.9336 28.5069 64.935C27.5575 62.9364 27.4657 60.6539 28.2516 58.5896C28.4086 58.209 28.5943 57.8401 28.8075 57.4861ZM79.1925 57.4861C79.4057 57.8401 79.5915 58.209 79.7484 58.5896C80.5344 60.6539 80.4426 62.9364 79.4931 64.935C78.5437 66.9336 76.8145 68.4847 74.6858 69.2469C72.5571 70.0091 70.2034 69.9201 68.1424 68.9994C66.0814 68.0788 64.482 66.4019 63.6959 64.3376C63.5084 63.8231 63.3738 63.292 63.2939 62.7519C68.6077 61.0008 73.9217 59.2495 79.1925 57.4861ZM16.03 63.3725L12 67.245L18.0372 87.7742L37.1186 95.3643L36.0918 79.3944L17.9962 71.2283L16.03 63.3725ZM91.9701 63.3725L90.0038 71.2283L71.9082 79.3944L70.8814 95.3643L89.9628 87.7742L96 67.245L91.9701 63.3725ZM54 73.9468L39.6912 79.4384L40.5597 96.6902L54 102L67.4403 96.6902L68.3088 79.4384L54 73.9468Z" fill="url(#paint0_linear_929_3893)"/>
<path d="M126.432 94V29.872H153.984C161.92 29.872 167.968 31.536 172.128 34.864C176.352 38.192 178.464 43.184 178.464 49.84C178.464 55.152 177.152 59.344 174.528 62.416C171.904 65.424 168.128 67.504 163.2 68.656L181.728 94H165.312L148.608 69.712H140.448V94H126.432ZM140.448 58.672H151.68C156.096 58.672 159.296 58 161.28 56.656C163.328 55.248 164.352 53.008 164.352 49.936C164.352 46.8 163.36 44.56 161.376 43.216C159.392 41.808 156.16 41.104 151.68 41.104H140.448V58.672ZM209.135 94.96C204.463 94.96 200.207 94.096 196.367 92.368C192.527 90.576 189.455 87.952 187.151 84.496C184.847 80.976 183.695 76.624 183.695 71.44C183.695 66.64 184.751 62.48 186.863 58.96C188.975 55.44 191.823 52.72 195.407 50.8C198.991 48.88 203.023 47.92 207.503 47.92C212.047 47.92 216.015 48.752 219.407 50.416C222.863 52.08 225.551 54.416 227.471 57.424C229.391 60.368 230.351 63.76 230.351 67.6C230.351 68.752 230.191 70.032 229.871 71.44C229.551 72.784 229.135 73.936 228.623 74.896H197.231C197.551 76.944 198.255 78.672 199.343 80.08C200.431 81.424 201.935 82.448 203.855 83.152C205.775 83.856 207.983 84.208 210.479 84.208C213.103 84.208 215.567 83.824 217.871 83.056C220.175 82.224 222.351 81.136 224.399 79.792L228.431 89.104C225.679 91.024 222.671 92.496 219.407 93.52C216.207 94.48 212.783 94.96 209.135 94.96ZM197.231 66.256H216.719C216.783 66.128 216.815 66 216.815 65.872C216.815 65.744 216.815 65.552 216.815 65.296C216.815 63.824 216.495 62.576 215.855 61.552C215.215 60.464 214.223 59.632 212.879 59.056C211.599 58.416 209.935 58.096 207.887 58.096C206.031 58.096 204.335 58.448 202.799 59.152C201.327 59.792 200.111 60.72 199.151 61.936C198.191 63.152 197.551 64.592 197.231 66.256ZM257.093 94.96C253.061 94.96 249.413 94.032 246.149 92.176C242.885 90.256 240.293 87.536 238.373 84.016C236.453 80.432 235.493 76.24 235.493 71.44C235.493 66.576 236.453 62.384 238.373 58.864C240.293 55.344 242.885 52.656 246.149 50.8C249.413 48.88 253.061 47.92 257.093 47.92C260.165 47.92 262.853 48.464 265.157 49.552C267.461 50.576 269.317 51.984 270.725 53.776V29.872H284.069V94H271.493V88.24C270.085 90.288 268.133 91.92 265.637 93.136C263.205 94.352 260.357 94.96 257.093 94.96ZM260.165 83.44C262.405 83.44 264.357 82.96 266.021 82C267.685 81.04 268.997 79.664 269.957 77.872C270.917 76.016 271.397 73.872 271.397 71.44C271.397 68.944 270.917 66.8 269.957 65.008C268.997 63.216 267.685 61.84 266.021 60.88C264.357 59.92 262.405 59.44 260.165 59.44C257.989 59.44 256.037 59.92 254.309 60.88C252.645 61.84 251.333 63.216 250.373 65.008C249.477 66.8 249.029 68.944 249.029 71.44C249.029 73.872 249.477 76.016 250.373 77.872C251.333 79.664 252.645 81.04 254.309 82C256.037 82.96 257.989 83.44 260.165 83.44ZM316.091 94.96C311.291 94.96 307.003 94 303.227 92.08C299.515 90.096 296.603 87.344 294.491 83.824C292.379 80.24 291.323 76.112 291.323 71.44C291.323 66.704 292.379 62.576 294.491 59.056C296.603 55.536 299.515 52.816 303.227 50.896C306.939 48.912 311.227 47.92 316.091 47.92C320.955 47.92 325.243 48.912 328.955 50.896C332.667 52.816 335.579 55.536 337.691 59.056C339.803 62.576 340.859 66.704 340.859 71.44C340.859 76.112 339.803 80.24 337.691 83.824C335.579 87.344 332.667 90.096 328.955 92.08C325.243 94 320.955 94.96 316.091 94.96ZM316.091 83.44C318.331 83.44 320.283 82.96 321.947 82C323.675 81.04 324.987 79.664 325.883 77.872C326.843 76.016 327.323 73.872 327.323 71.44C327.323 68.944 326.843 66.8 325.883 65.008C324.987 63.216 323.675 61.84 321.947 60.88C320.283 59.92 318.331 59.44 316.091 59.44C313.851 59.44 311.867 59.92 310.139 60.88C308.475 61.84 307.163 63.216 306.203 65.008C305.307 66.8 304.859 68.944 304.859 71.44C304.859 73.872 305.307 76.016 306.203 77.872C307.163 79.664 308.475 81.04 310.139 82C311.867 82.96 313.851 83.44 316.091 83.44ZM369.356 94.576C363.724 94.576 359.66 93.36 357.164 90.928C354.732 88.496 353.516 84.752 353.516 79.696V59.728H344.396V48.88H353.516V36.016H366.86V48.88H377.804V59.728H366.86V78.352C366.86 80.144 367.308 81.488 368.204 82.384C369.164 83.28 370.54 83.728 372.332 83.728C373.1 83.728 374.028 83.696 375.116 83.632C376.204 83.568 377.1 83.472 377.804 83.344V93.616C376.716 93.936 375.404 94.16 373.868 94.288C372.396 94.48 370.892 94.576 369.356 94.576ZM405.912 94V29.872H452.568V41.68H419.928V55.408H449.688V66.544H419.928V82.192H452.568V94H405.912ZM456.37 94L472.498 70.672L457.33 48.88H472.114L480.85 62.8L489.587 48.88H504.37L489.106 70.672L505.33 94H490.546L480.85 79.312L471.154 94H456.37ZM510.431 111.472V48.88H523.007V54.64C524.415 52.592 526.335 50.96 528.767 49.744C531.199 48.528 534.079 47.92 537.407 47.92C541.503 47.92 545.151 48.88 548.351 50.8C551.615 52.656 554.207 55.344 556.127 58.864C558.047 62.384 559.007 66.576 559.007 71.44C559.007 76.304 558.047 80.496 556.127 84.016C554.207 87.536 551.615 90.256 548.351 92.176C545.151 94.032 541.503 94.96 537.407 94.96C534.271 94.96 531.551 94.448 529.247 93.424C526.943 92.336 525.087 90.896 523.679 89.104V111.472H510.431ZM534.335 83.44C536.511 83.44 538.431 82.96 540.095 82C541.823 81.04 543.135 79.664 544.031 77.872C544.991 76.016 545.471 73.872 545.471 71.44C545.471 68.944 544.991 66.8 544.031 65.008C543.135 63.216 541.823 61.84 540.095 60.88C538.431 59.92 536.511 59.44 534.335 59.44C532.159 59.44 530.207 59.92 528.479 60.88C526.751 61.84 525.439 63.216 524.543 65.008C523.647 66.8 523.199 68.944 523.199 71.44C523.199 73.872 523.647 76.016 524.543 77.872C525.439 79.664 526.719 81.04 528.383 82C530.111 82.96 532.095 83.44 534.335 83.44ZM589.493 94.96C584.821 94.96 580.565 94.096 576.725 92.368C572.885 90.576 569.813 87.952 567.509 84.496C565.205 80.976 564.053 76.624 564.053 71.44C564.053 66.64 565.109 62.48 567.221 58.96C569.333 55.44 572.181 52.72 575.765 50.8C579.349 48.88 583.381 47.92 587.861 47.92C592.405 47.92 596.373 48.752 599.765 50.416C603.221 52.08 605.909 54.416 607.829 57.424C609.749 60.368 610.709 63.76 610.709 67.6C610.709 68.752 610.549 70.032 610.229 71.44C609.909 72.784 609.493 73.936 608.981 74.896H577.589C577.909 76.944 578.613 78.672 579.701 80.08C580.789 81.424 582.293 82.448 584.213 83.152C586.133 83.856 588.341 84.208 590.837 84.208C593.461 84.208 595.925 83.824 598.229 83.056C600.533 82.224 602.709 81.136 604.757 79.792L608.789 89.104C606.037 91.024 603.029 92.496 599.765 93.52C596.565 94.48 593.141 94.96 589.493 94.96ZM577.589 66.256H597.077C597.141 66.128 597.173 66 597.173 65.872C597.173 65.744 597.173 65.552 597.173 65.296C597.173 63.824 596.853 62.576 596.213 61.552C595.573 60.464 594.581 59.632 593.237 59.056C591.957 58.416 590.293 58.096 588.245 58.096C586.389 58.096 584.693 58.448 583.157 59.152C581.685 59.792 580.469 60.72 579.509 61.936C578.549 63.152 577.909 64.592 577.589 66.256ZM618.06 94V48.88H630.636V55.696C631.916 53.008 633.58 51.12 635.628 50.032C637.676 48.88 639.948 48.304 642.444 48.304C643.276 48.304 644.012 48.368 644.652 48.496C645.356 48.56 645.9 48.688 646.284 48.88V61.552C645.388 61.36 644.46 61.2 643.5 61.072C642.604 60.944 641.676 60.88 640.716 60.88C638.092 60.88 635.852 61.84 633.996 63.76C632.204 65.68 631.308 68.496 631.308 72.208V94H618.06ZM652.796 94V48.88H666.044V94H652.796ZM659.42 41.968C657.052 41.968 655.196 41.296 653.852 39.952C652.508 38.544 651.836 36.784 651.836 34.672C651.836 32.56 652.508 30.832 653.852 29.488C655.196 28.144 657.052 27.472 659.42 27.472C661.724 27.472 663.548 28.176 664.892 29.584C666.3 30.928 667.004 32.656 667.004 34.768C667.004 36.88 666.3 38.608 664.892 39.952C663.548 41.296 661.724 41.968 659.42 41.968ZM675.626 94V48.88H688.202V53.872C689.61 52.016 691.37 50.576 693.482 49.552C695.658 48.464 698.282 47.92 701.354 47.92C704.234 47.92 706.762 48.496 708.938 49.648C711.178 50.8 712.938 52.432 714.218 54.544C715.626 52.368 717.546 50.736 719.978 49.648C722.474 48.496 725.386 47.92 728.714 47.92C734.154 47.92 738.314 49.392 741.194 52.336C744.074 55.216 745.514 59.696 745.514 65.776V94H732.266V67.792C732.266 64.976 731.69 62.896 730.538 61.552C729.45 60.144 727.786 59.44 725.546 59.44C722.858 59.44 720.778 60.4 719.306 62.32C717.898 64.176 717.194 66.896 717.194 70.48V94H703.85V67.792C703.85 64.976 703.306 62.896 702.218 61.552C701.194 60.144 699.562 59.44 697.322 59.44C694.57 59.44 692.458 60.4 690.986 62.32C689.578 64.176 688.874 66.896 688.874 70.48V94H675.626ZM778.313 94.96C773.641 94.96 769.385 94.096 765.545 92.368C761.705 90.576 758.633 87.952 756.329 84.496C754.025 80.976 752.873 76.624 752.873 71.44C752.873 66.64 753.929 62.48 756.041 58.96C758.153 55.44 761.001 52.72 764.585 50.8C768.169 48.88 772.201 47.92 776.681 47.92C781.225 47.92 785.193 48.752 788.585 50.416C792.041 52.08 794.729 54.416 796.649 57.424C798.569 60.368 799.529 63.76 799.529 67.6C799.529 68.752 799.369 70.032 799.049 71.44C798.729 72.784 798.313 73.936 797.801 74.896H766.409C766.729 76.944 767.433 78.672 768.521 80.08C769.609 81.424 771.113 82.448 773.033 83.152C774.953 83.856 777.161 84.208 779.657 84.208C782.281 84.208 784.745 83.824 787.049 83.056C789.353 82.224 791.529 81.136 793.577 79.792L797.609 89.104C794.857 91.024 791.849 92.496 788.585 93.52C785.385 94.48 781.961 94.96 778.313 94.96ZM766.409 66.256H785.897C785.961 66.128 785.993 66 785.993 65.872C785.993 65.744 785.993 65.552 785.993 65.296C785.993 63.824 785.673 62.576 785.033 61.552C784.393 60.464 783.401 59.632 782.057 59.056C780.777 58.416 779.113 58.096 777.065 58.096C775.209 58.096 773.513 58.448 771.977 59.152C770.505 59.792 769.289 60.72 768.329 61.936C767.369 63.152 766.729 64.592 766.409 66.256ZM806.88 94V48.88H819.456V54.352C820.864 52.368 822.72 50.8 825.024 49.648C827.328 48.496 830.208 47.92 833.664 47.92C838.72 47.92 842.72 49.392 845.664 52.336C848.608 55.216 850.08 59.696 850.08 65.776V94H836.832V67.792C836.832 64.976 836.224 62.896 835.008 61.552C833.856 60.144 832.032 59.44 829.536 59.44C826.656 59.44 824.352 60.4 822.624 62.32C820.96 64.176 820.128 66.896 820.128 70.48V94H806.88ZM878.768 94.576C873.136 94.576 869.072 93.36 866.576 90.928C864.144 88.496 862.928 84.752 862.928 79.696V59.728H853.808V48.88H862.928V36.016H876.272V48.88H887.216V59.728H876.272V78.352C876.272 80.144 876.72 81.488 877.616 82.384C878.576 83.28 879.952 83.728 881.744 83.728C882.512 83.728 883.44 83.696 884.528 83.632C885.616 83.568 886.512 83.472 887.216 83.344V93.616C886.128 93.936 884.816 94.16 883.28 94.288C881.808 94.48 880.304 94.576 878.768 94.576ZM908.75 94.96C905.678 94.96 902.862 94.448 900.302 93.424C897.806 92.4 895.822 90.864 894.35 88.816C892.942 86.768 892.238 84.272 892.238 81.328C892.238 78.256 892.974 75.792 894.446 73.936C895.918 72.016 897.902 70.576 900.398 69.616C902.894 68.592 905.678 67.888 908.75 67.504L923.246 65.776C922.798 63.344 921.678 61.584 919.886 60.496C918.094 59.408 916.014 58.864 913.646 58.864C911.662 58.864 909.55 59.216 907.31 59.92C905.134 60.624 902.574 61.808 899.63 63.472L895.502 53.872C898.382 51.888 901.454 50.416 904.718 49.456C907.982 48.432 911.246 47.92 914.51 47.92C921.678 47.92 927.15 49.456 930.926 52.528C934.766 55.536 936.686 60.208 936.686 66.544V94H924.11V88.912C922.254 91.088 920.11 92.656 917.678 93.616C915.31 94.512 912.334 94.96 908.75 94.96ZM912.782 84.784C915.022 84.784 916.91 84.368 918.446 83.536C920.046 82.704 921.262 81.584 922.094 80.176C922.99 78.768 923.438 77.264 923.438 75.664V74.32L913.166 75.664C910.67 75.984 908.814 76.528 907.598 77.296C906.382 78 905.774 79.088 905.774 80.56C905.774 81.968 906.35 83.024 907.502 83.728C908.718 84.432 910.478 84.784 912.782 84.784ZM946.245 94V29.872H959.493V94H946.245Z" fill="black"/>
<path d="M989.952 94V29.872H1013.28C1024.61 29.872 1033.25 32.56 1039.2 37.936C1045.15 43.312 1048.13 51.312 1048.13 61.936C1048.13 72.56 1045.15 80.56 1039.2 85.936C1033.25 91.312 1024.61 94 1013.28 94H989.952ZM1003.97 82.192H1013.09C1020.58 82.192 1025.92 80.528 1029.12 77.2C1032.32 73.808 1033.92 68.72 1033.92 61.936C1033.92 55.152 1032.32 50.096 1029.12 46.768C1025.92 43.376 1020.58 41.68 1013.09 41.68H1003.97V82.192ZM1078.08 94.96C1073.28 94.96 1068.99 94 1065.21 92.08C1061.5 90.096 1058.59 87.344 1056.48 83.824C1054.36 80.24 1053.31 76.112 1053.31 71.44C1053.31 66.704 1054.36 62.576 1056.48 59.056C1058.59 55.536 1061.5 52.816 1065.21 50.896C1068.92 48.912 1073.21 47.92 1078.08 47.92C1082.94 47.92 1087.23 48.912 1090.94 50.896C1094.65 52.816 1097.56 55.536 1099.68 59.056C1101.79 62.576 1102.84 66.704 1102.84 71.44C1102.84 76.112 1101.79 80.24 1099.68 83.824C1097.56 87.344 1094.65 90.096 1090.94 92.08C1087.23 94 1082.94 94.96 1078.08 94.96ZM1078.08 83.44C1080.32 83.44 1082.27 82.96 1083.93 82C1085.66 81.04 1086.97 79.664 1087.87 77.872C1088.83 76.016 1089.31 73.872 1089.31 71.44C1089.31 68.944 1088.83 66.8 1087.87 65.008C1086.97 63.216 1085.66 61.84 1083.93 60.88C1082.27 59.92 1080.32 59.44 1078.08 59.44C1075.84 59.44 1073.85 59.92 1072.12 60.88C1070.46 61.84 1069.15 63.216 1068.19 65.008C1067.29 66.8 1066.84 68.944 1066.84 71.44C1066.84 73.872 1067.29 76.016 1068.19 77.872C1069.15 79.664 1070.46 81.04 1072.12 82C1073.85 82.96 1075.84 83.44 1078.08 83.44ZM1132.78 94.96C1127.98 94.96 1123.69 94 1119.92 92.08C1116.21 90.096 1113.29 87.344 1111.18 83.824C1109.07 80.24 1108.01 76.112 1108.01 71.44C1108.01 66.704 1109.07 62.576 1111.18 59.056C1113.29 55.536 1116.21 52.816 1119.92 50.896C1123.69 48.912 1127.98 47.92 1132.78 47.92C1135.98 47.92 1138.93 48.368 1141.61 49.264C1144.37 50.096 1146.96 51.376 1149.39 53.104L1144.78 63.088C1142.67 61.808 1140.65 60.88 1138.73 60.304C1136.81 59.728 1134.83 59.44 1132.78 59.44C1130.54 59.44 1128.56 59.92 1126.83 60.88C1125.17 61.776 1123.85 63.152 1122.89 65.008C1122 66.8 1121.55 68.944 1121.55 71.44C1121.55 73.936 1122 76.08 1122.89 77.872C1123.85 79.664 1125.17 81.04 1126.83 82C1128.56 82.96 1130.54 83.44 1132.78 83.44C1134.83 83.44 1136.81 83.152 1138.73 82.576C1140.65 82 1142.67 81.072 1144.78 79.792L1149.39 89.776C1146.96 91.504 1144.37 92.816 1141.61 93.712C1138.93 94.544 1135.98 94.96 1132.78 94.96ZM1173.2 94.96C1169.81 94.96 1166.51 94.48 1163.31 93.52C1160.11 92.56 1157.01 91.12 1154 89.2L1158.51 79.6C1161.58 81.456 1164.37 82.832 1166.86 83.728C1169.36 84.56 1171.57 84.976 1173.49 84.976C1175.79 84.976 1177.52 84.656 1178.67 84.016C1179.82 83.376 1180.4 82.384 1180.4 81.04C1180.4 79.952 1180.02 79.12 1179.25 78.544C1178.48 77.968 1177.1 77.52 1175.12 77.2L1169.17 76.144C1164.56 75.312 1161.1 73.84 1158.8 71.728C1156.56 69.616 1155.44 66.832 1155.44 63.376C1155.44 60.56 1156.11 58 1157.46 55.696C1158.86 53.328 1160.98 51.44 1163.79 50.032C1166.61 48.624 1170.26 47.92 1174.74 47.92C1178 47.92 1181.14 48.368 1184.14 49.264C1187.15 50.16 1189.94 51.376 1192.5 52.912L1188.08 62.032C1186.03 60.944 1183.86 59.984 1181.55 59.152C1179.31 58.32 1177.2 57.904 1175.22 57.904C1173.1 57.904 1171.54 58.224 1170.51 58.864C1169.49 59.504 1168.98 60.432 1168.98 61.648C1168.98 62.48 1169.3 63.152 1169.94 63.664C1170.64 64.176 1171.92 64.592 1173.78 64.912L1179.73 65.968C1184.34 66.8 1187.86 68.336 1190.29 70.576C1192.72 72.752 1193.94 75.728 1193.94 79.504C1193.94 83.984 1192.21 87.696 1188.75 90.64C1185.3 93.52 1180.11 94.96 1173.2 94.96Z" fill="url(#paint1_linear_929_3893)"/>
<defs>
<linearGradient id="paint0_linear_929_3893" x1="25.3763" y1="27.3982" x2="112.348" y2="119.812" gradientUnits="userSpaceOnUse">
<stop stop-color="#FF1300"/>
<stop offset="1" stop-color="#FF6E01"/>
</linearGradient>
<linearGradient id="paint1_linear_929_3893" x1="291.663" y1="22.7408" x2="308.238" y2="220.511" gradientUnits="userSpaceOnUse">
<stop stop-color="#FF1300"/>
<stop offset="1" stop-color="#FF6E01"/>
</linearGradient>
</defs>
</svg>
