<svg width="1506" height="133" viewBox="0 0 1506 133" fill="none" xmlns="http://www.w3.org/2000/svg">
<path d="M45.7362 3L42.5519 12.7572C39.0834 14.2121 35.6149 15.6669 32.1469 17.1228C28.467 16.3711 24.7777 15.5004 21.0487 15.0642C20.4601 15.7067 5.56555 37.9242 5.56976 38.1538C6.25599 39.7835 7.43445 41.1855 8.32578 42.7106L62.5 61.1672L116.674 42.7106C117.566 41.1855 118.744 39.7835 119.43 38.1538C119.433 37.9242 104.54 15.7067 103.951 15.0642C100.222 15.5004 96.5331 16.3711 92.8531 17.1228C89.3851 15.6669 85.9165 14.2121 82.4481 12.7572L79.2638 3H45.7362ZM12.4516 49.4232C12.3845 49.4033 12.2494 49.5003 12.2444 49.5331C11.5919 54.6936 10.3166 65.0181 10.3166 65.0181L13.6175 78.8587L38.5905 89.863L62.4999 81.1911L86.4092 89.863L111.382 78.8587L114.683 65.0181C114.683 65.0181 113.408 54.6936 112.755 49.5331C112.749 49.4892 112.511 49.3299 112.511 49.4909C96.1627 55.1274 79.1095 60.5861 62.4997 66.1457C45.8899 60.5861 28.8367 55.1274 12.4884 49.4909C12.4884 49.4506 12.474 49.4304 12.4516 49.4232ZM25.0111 61.759C32.8546 64.3832 40.7624 66.9893 48.6698 69.595C48.5509 70.3988 48.3505 71.1892 48.0715 71.9548C46.9018 75.0266 44.5217 77.522 41.4547 78.892C38.3878 80.2621 34.8852 80.3945 31.7175 79.2603C28.5498 78.126 25.9766 75.8179 24.5638 72.8438C23.151 69.8696 23.0144 66.473 24.184 63.4012C24.4175 62.8348 24.694 62.2859 25.0111 61.759ZM99.9889 61.759C100.306 62.2859 100.583 62.8348 100.816 63.4012C101.986 66.473 101.849 69.8696 100.436 72.8438C99.0234 75.8179 96.4501 78.126 93.2825 79.2603C90.1148 80.3945 86.6122 80.262 83.5452 78.892C80.4783 77.522 78.0981 75.0266 76.9284 71.9548C76.6495 71.1892 76.4491 70.3988 76.3302 69.595C84.2376 66.9893 92.1454 64.3832 99.9889 61.759ZM5.99697 70.5187L0 76.2813L8.98399 106.831L37.3788 118.125L35.851 94.3607L8.92295 82.2088L5.99697 70.5187ZM119.003 70.5187L116.077 82.2088L89.149 94.3607L87.6212 118.125L116.016 106.831L125 76.2813L119.003 70.5187ZM62.5 86.2541L41.2072 94.4262L42.4996 120.098L62.5 128L82.5004 120.098L83.7929 94.4262L62.5 86.2541Z" fill="url(#paint0_linear_313_6)"/>
<path d="M150.6 109V48.84H162.12V59.464C163.741 55.7093 166.003 52.8933 168.904 51.016C171.891 49.0533 175.219 48.072 178.888 48.072C180.083 48.072 181.149 48.1573 182.088 48.328C183.112 48.4133 183.88 48.584 184.392 48.84V60.232C183.283 59.976 182.131 59.8053 180.936 59.72C179.827 59.5493 178.717 59.464 177.608 59.464C173.341 59.464 169.757 61.256 166.856 64.84C164.04 68.3387 162.632 73.3733 162.632 79.944V109H150.6ZM220.212 110.28C214.153 110.28 208.692 109.085 203.828 106.696C199.049 104.221 195.252 100.68 192.436 96.072C189.62 91.3787 188.212 85.6613 188.212 78.92C188.212 72.52 189.535 66.9733 192.18 62.28C194.911 57.5867 198.537 53.96 203.06 51.4C207.668 48.84 212.788 47.56 218.42 47.56C224.308 47.56 229.428 48.712 233.78 51.016C238.132 53.32 241.46 56.4347 243.764 60.36C246.153 64.2 247.348 68.5947 247.348 73.544C247.348 74.9947 247.135 76.5733 246.708 78.28C246.367 79.9867 245.897 81.352 245.3 82.376H200.5C200.927 86.216 201.993 89.4587 203.7 92.104C205.492 94.664 207.881 96.6267 210.868 97.992C213.855 99.272 217.311 99.912 221.236 99.912C225.161 99.912 228.617 99.3147 231.604 98.12C234.676 96.9253 237.62 95.2613 240.436 93.128L244.788 101.96C241.46 104.691 237.705 106.781 233.524 108.232C229.428 109.597 224.991 110.28 220.212 110.28ZM200.5 73.16H234.932C235.017 72.904 235.06 72.6907 235.06 72.52C235.06 72.3493 235.06 72.136 235.06 71.88C235.06 68.9787 234.463 66.504 233.268 64.456C232.073 62.3227 230.281 60.6587 227.892 59.464C225.503 58.2693 222.473 57.672 218.804 57.672C215.817 57.672 213.044 58.312 210.484 59.592C208.009 60.7867 205.876 62.536 204.084 64.84C202.377 67.0587 201.183 69.832 200.5 73.16ZM286.077 110.28C280.616 110.28 275.709 109 271.357 106.44C267.005 103.88 263.549 100.253 260.989 95.56C258.514 90.8667 257.277 85.32 257.277 78.92C257.277 72.4347 258.514 66.888 260.989 62.28C263.549 57.5867 267.005 53.96 271.357 51.4C275.709 48.84 280.616 47.56 286.077 47.56C290.856 47.56 295.037 48.4987 298.621 50.376C302.205 52.168 304.978 54.6 306.941 57.672V23.496H318.973V109H307.453V99.4C305.576 102.643 302.802 105.288 299.133 107.336C295.464 109.299 291.112 110.28 286.077 110.28ZM288.509 99.784C292.264 99.784 295.549 98.9307 298.365 97.224C301.181 95.5173 303.4 93.128 305.021 90.056C306.642 86.8987 307.453 83.1867 307.453 78.92C307.453 74.6533 306.642 70.984 305.021 67.912C303.4 64.7547 301.181 62.3227 298.365 60.616C295.549 58.9093 292.306 58.056 288.637 58.056C284.882 58.056 281.554 58.9093 278.653 60.616C275.837 62.3227 273.618 64.7547 271.997 67.912C270.461 70.984 269.693 74.6533 269.693 78.92C269.693 83.1867 270.504 86.8987 272.125 90.056C273.746 93.128 275.965 95.5173 278.781 97.224C281.597 98.9307 284.84 99.784 288.509 99.784ZM363.83 110.28C357.686 110.28 352.225 109 347.446 106.44C342.667 103.795 338.955 100.125 336.31 95.432C333.665 90.7387 332.342 85.2347 332.342 78.92C332.342 72.6053 333.665 67.1013 336.31 62.408C338.955 57.7147 342.667 54.088 347.446 51.528C352.225 48.8827 357.686 47.56 363.83 47.56C370.059 47.56 375.521 48.8827 380.214 51.528C384.993 54.088 388.705 57.7147 391.35 62.408C393.995 67.1013 395.318 72.6053 395.318 78.92C395.318 85.2347 393.995 90.7387 391.35 95.432C388.705 100.125 384.993 103.795 380.214 106.44C375.521 109 370.059 110.28 363.83 110.28ZM363.83 99.784C367.67 99.784 371.041 98.9307 373.942 97.224C376.843 95.5173 379.062 93.128 380.598 90.056C382.219 86.8987 383.03 83.1867 383.03 78.92C383.03 74.6533 382.219 70.984 380.598 67.912C379.062 64.7547 376.843 62.3227 373.942 60.616C371.041 58.9093 367.67 58.056 363.83 58.056C359.99 58.056 356.619 58.9093 353.718 60.616C350.817 62.3227 348.555 64.7547 346.934 67.912C345.398 70.984 344.63 74.6533 344.63 78.92C344.63 83.1867 345.398 86.8987 346.934 90.056C348.555 93.128 350.817 95.5173 353.718 97.224C356.619 98.9307 359.99 99.784 363.83 99.784ZM433.698 109.768C427.469 109.768 422.818 108.317 419.746 105.416C416.759 102.429 415.266 97.8213 415.266 91.592V59.08H402.082V48.84H415.266V31.688H427.298V48.84H442.914V59.08H427.298V90.568C427.298 93.5547 428.023 95.816 429.474 97.352C430.925 98.8027 433.143 99.528 436.13 99.528C437.154 99.528 438.349 99.4853 439.714 99.4C441.079 99.3147 442.146 99.1867 442.914 99.016V108.744C441.805 109.085 440.397 109.341 438.69 109.512C437.069 109.683 435.405 109.768 433.698 109.768ZM511.912 110.28C505.853 110.28 500.392 109.085 495.528 106.696C490.749 104.221 486.952 100.68 484.136 96.072C481.32 91.3787 479.912 85.6613 479.912 78.92C479.912 72.52 481.235 66.9733 483.88 62.28C486.611 57.5867 490.237 53.96 494.76 51.4C499.368 48.84 504.488 47.56 510.12 47.56C516.008 47.56 521.128 48.712 525.48 51.016C529.832 53.32 533.16 56.4347 535.464 60.36C537.853 64.2 539.048 68.5947 539.048 73.544C539.048 74.9947 538.835 76.5733 538.408 78.28C538.067 79.9867 537.597 81.352 537 82.376H492.2C492.627 86.216 493.693 89.4587 495.4 92.104C497.192 94.664 499.581 96.6267 502.568 97.992C505.555 99.272 509.011 99.912 512.936 99.912C516.861 99.912 520.317 99.3147 523.304 98.12C526.376 96.9253 529.32 95.2613 532.136 93.128L536.488 101.96C533.16 104.691 529.405 106.781 525.224 108.232C521.128 109.597 516.691 110.28 511.912 110.28ZM492.2 73.16H526.632C526.717 72.904 526.76 72.6907 526.76 72.52C526.76 72.3493 526.76 72.136 526.76 71.88C526.76 68.9787 526.163 66.504 524.968 64.456C523.773 62.3227 521.981 60.6587 519.592 59.464C517.203 58.2693 514.173 57.672 510.504 57.672C507.517 57.672 504.744 58.312 502.184 59.592C499.709 60.7867 497.576 62.536 495.784 64.84C494.077 67.0587 492.883 69.832 492.2 73.16ZM538.155 109L561.195 77.896L539.435 48.84H553.259L568.875 70.472L584.491 48.84H598.315L576.555 77.896L599.595 109H585.771L568.875 86.088L551.979 109H538.155ZM609.995 132.296V48.84H621.515V58.44C623.392 55.1973 626.166 52.5947 629.835 50.632C633.504 48.584 637.856 47.56 642.891 47.56C648.352 47.56 653.259 48.84 657.611 51.4C661.963 53.96 665.376 57.5867 667.851 62.28C670.411 66.888 671.691 72.4347 671.691 78.92C671.691 85.32 670.411 90.8667 667.851 95.56C665.376 100.253 661.963 103.88 657.611 106.44C653.259 109 648.352 110.28 642.891 110.28C638.112 110.28 633.931 109.384 630.347 107.592C626.763 105.715 623.99 103.24 622.027 100.168V132.296H609.995ZM640.459 99.784C644.128 99.784 647.371 98.9307 650.187 97.224C653.003 95.5173 655.222 93.128 656.843 90.056C658.464 86.8987 659.275 83.1867 659.275 78.92C659.275 74.6533 658.464 70.984 656.843 67.912C655.307 64.7547 653.088 62.3227 650.187 60.616C647.371 58.9093 644.128 58.056 640.459 58.056C636.704 58.056 633.419 58.9093 630.603 60.616C627.787 62.3227 625.568 64.7547 623.947 67.912C622.326 70.984 621.515 74.6533 621.515 78.92C621.515 83.1867 622.326 86.8987 623.947 90.056C625.568 93.128 627.787 95.5173 630.603 97.224C633.419 98.9307 636.704 99.784 640.459 99.784ZM713.732 110.28C707.673 110.28 702.212 109.085 697.348 106.696C692.569 104.221 688.772 100.68 685.956 96.072C683.14 91.3787 681.732 85.6613 681.732 78.92C681.732 72.52 683.055 66.9733 685.7 62.28C688.431 57.5867 692.057 53.96 696.58 51.4C701.188 48.84 706.308 47.56 711.94 47.56C717.828 47.56 722.948 48.712 727.3 51.016C731.652 53.32 734.98 56.4347 737.284 60.36C739.673 64.2 740.868 68.5947 740.868 73.544C740.868 74.9947 740.655 76.5733 740.228 78.28C739.887 79.9867 739.417 81.352 738.82 82.376H694.02C694.447 86.216 695.513 89.4587 697.22 92.104C699.012 94.664 701.401 96.6267 704.388 97.992C707.375 99.272 710.831 99.912 714.756 99.912C718.681 99.912 722.137 99.3147 725.124 98.12C728.196 96.9253 731.14 95.2613 733.956 93.128L738.308 101.96C734.98 104.691 731.225 106.781 727.044 108.232C722.948 109.597 718.511 110.28 713.732 110.28ZM694.02 73.16H728.452C728.537 72.904 728.58 72.6907 728.58 72.52C728.58 72.3493 728.58 72.136 728.58 71.88C728.58 68.9787 727.983 66.504 726.788 64.456C725.593 62.3227 723.801 60.6587 721.412 59.464C719.023 58.2693 715.993 57.672 712.324 57.672C709.337 57.672 706.564 58.312 704.004 59.592C701.529 60.7867 699.396 62.536 697.604 64.84C695.897 67.0587 694.703 69.832 694.02 73.16ZM754.125 109V48.84H765.645V59.464C767.266 55.7093 769.528 52.8933 772.429 51.016C775.416 49.0533 778.744 48.072 782.413 48.072C783.608 48.072 784.674 48.1573 785.613 48.328C786.637 48.4133 787.405 48.584 787.917 48.84V60.232C786.808 59.976 785.656 59.8053 784.461 59.72C783.352 59.5493 782.242 59.464 781.133 59.464C776.866 59.464 773.282 61.256 770.381 64.84C767.565 68.3387 766.157 73.3733 766.157 79.944V109H754.125ZM799.065 109V48.84H811.097V109H799.065ZM804.953 36.424C802.82 36.424 801.07 35.784 799.705 34.504C798.425 33.224 797.785 31.56 797.785 29.512C797.785 27.464 798.425 25.8427 799.705 24.648C801.07 23.368 802.82 22.728 804.953 22.728C807.172 22.728 808.964 23.368 810.329 24.648C811.694 25.8427 812.377 27.464 812.377 29.512C812.377 31.56 811.694 33.224 810.329 34.504C808.964 35.784 807.172 36.424 804.953 36.424ZM827.63 109V48.84H839.15V56.904C840.857 53.9173 843.203 51.6133 846.19 49.992C849.262 48.3707 852.931 47.56 857.198 47.56C861.465 47.56 865.091 48.4987 868.078 50.376C871.15 52.168 873.454 54.6853 874.99 57.928C876.867 54.5147 879.555 51.9547 883.054 50.248C886.553 48.456 890.563 47.56 895.086 47.56C901.913 47.56 907.246 49.5227 911.086 53.448C915.011 57.3733 916.974 63.5173 916.974 71.88V109H904.942V73.416C904.942 68.04 903.875 64.1573 901.742 61.768C899.694 59.2933 896.665 58.056 892.654 58.056C887.961 58.056 884.377 59.848 881.902 63.432C879.513 67.016 878.318 71.9227 878.318 78.152V109H866.158V73.416C866.158 68.04 865.091 64.1573 862.958 61.768C860.91 59.2933 857.881 58.056 853.87 58.056C849.177 58.056 845.635 59.848 843.246 63.432C840.857 67.016 839.662 71.9227 839.662 78.152V109H827.63ZM962.242 110.28C956.183 110.28 950.722 109.085 945.858 106.696C941.079 104.221 937.282 100.68 934.466 96.072C931.65 91.3787 930.242 85.6613 930.242 78.92C930.242 72.52 931.565 66.9733 934.21 62.28C936.941 57.5867 940.567 53.96 945.09 51.4C949.698 48.84 954.818 47.56 960.45 47.56C966.338 47.56 971.458 48.712 975.81 51.016C980.162 53.32 983.49 56.4347 985.794 60.36C988.183 64.2 989.378 68.5947 989.378 73.544C989.378 74.9947 989.165 76.5733 988.738 78.28C988.397 79.9867 987.927 81.352 987.33 82.376H942.53C942.957 86.216 944.023 89.4587 945.73 92.104C947.522 94.664 949.911 96.6267 952.898 97.992C955.885 99.272 959.341 99.912 963.266 99.912C967.191 99.912 970.647 99.3147 973.634 98.12C976.706 96.9253 979.65 95.2613 982.466 93.128L986.818 101.96C983.49 104.691 979.735 106.781 975.554 108.232C971.458 109.597 967.021 110.28 962.242 110.28ZM942.53 73.16H976.962C977.047 72.904 977.09 72.6907 977.09 72.52C977.09 72.3493 977.09 72.136 977.09 71.88C977.09 68.9787 976.493 66.504 975.298 64.456C974.103 62.3227 972.311 60.6587 969.922 59.464C967.533 58.2693 964.503 57.672 960.834 57.672C957.847 57.672 955.074 58.312 952.514 59.592C950.039 60.7867 947.906 62.536 946.114 64.84C944.407 67.0587 943.213 69.832 942.53 73.16ZM1002.63 109V48.84H1014.15V57.8C1015.95 54.6427 1018.55 52.168 1021.96 50.376C1025.38 48.4987 1029.51 47.56 1034.38 47.56C1041.29 47.56 1046.67 49.5227 1050.51 53.448C1054.43 57.3733 1056.39 63.5173 1056.39 71.88V109H1044.36V73.416C1044.36 68.04 1043.25 64.1573 1041.03 61.768C1038.9 59.2933 1035.62 58.056 1031.18 58.056C1025.89 58.056 1021.79 59.848 1018.89 63.432C1016.07 67.016 1014.67 71.9227 1014.67 78.152V109H1002.63ZM1094.91 109.768C1088.68 109.768 1084.03 108.317 1080.96 105.416C1077.97 102.429 1076.48 97.8213 1076.48 91.592V59.08H1063.3V48.84H1076.48V31.688H1088.51V48.84H1104.13V59.08H1088.51V90.568C1088.51 93.5547 1089.24 95.816 1090.69 97.352C1092.14 98.8027 1094.36 99.528 1097.34 99.528C1098.37 99.528 1099.56 99.4853 1100.93 99.4C1102.29 99.3147 1103.36 99.1867 1104.13 99.016V108.744C1103.02 109.085 1101.61 109.341 1099.9 109.512C1098.28 109.683 1096.62 109.768 1094.91 109.768ZM1135.21 110.28C1130.77 110.28 1126.85 109.597 1123.44 108.232C1120.11 106.781 1117.51 104.733 1115.63 102.088C1113.75 99.3573 1112.81 96.1147 1112.81 92.36C1112.81 88.52 1113.75 85.32 1115.63 82.76C1117.51 80.2 1120.15 78.1947 1123.56 76.744C1126.98 75.2933 1130.86 74.312 1135.21 73.8L1156.46 71.112C1155.95 66.5893 1154.24 63.2613 1151.34 61.128C1148.44 58.9947 1144.85 57.928 1140.59 57.928C1137.69 57.928 1134.66 58.5253 1131.5 59.72C1128.43 60.8293 1125.14 62.6213 1121.64 65.096L1117.16 56.008C1120.49 53.3627 1124.16 51.3147 1128.17 49.864C1132.18 48.328 1136.36 47.56 1140.72 47.56C1149.93 47.56 1156.89 49.6507 1161.58 53.832C1166.27 58.0133 1168.62 64.2 1168.62 72.392V109H1157.1V100.296C1154.88 103.624 1151.89 106.141 1148.14 107.848C1144.47 109.469 1140.16 110.28 1135.21 110.28ZM1138.03 100.168C1142.04 100.168 1145.41 99.3573 1148.14 97.736C1150.96 96.1147 1153.05 93.9813 1154.41 91.336C1155.86 88.6907 1156.59 85.9173 1156.59 83.016V80.328L1138.67 82.632C1134.23 83.2293 1130.86 84.2107 1128.56 85.576C1126.25 86.856 1125.1 88.9467 1125.1 91.848C1125.1 94.4933 1126.21 96.5413 1128.43 97.992C1130.73 99.4427 1133.93 100.168 1138.03 100.168ZM1185.2 109V23.496H1197.24V109H1185.2Z" fill="white"/>
<path d="M1267.56 110.28C1262.1 110.28 1257.19 109 1252.84 106.44C1248.48 103.88 1245.03 100.253 1242.47 95.56C1239.99 90.8667 1238.76 85.32 1238.76 78.92C1238.76 72.4347 1239.99 66.888 1242.47 62.28C1245.03 57.5867 1248.48 53.96 1252.84 51.4C1257.19 48.84 1262.1 47.56 1267.56 47.56C1272.34 47.56 1276.52 48.4987 1280.1 50.376C1283.68 52.168 1286.46 54.6 1288.42 57.672V23.496H1300.45V109H1288.93V99.4C1287.06 102.643 1284.28 105.288 1280.61 107.336C1276.94 109.299 1272.59 110.28 1267.56 110.28ZM1269.99 99.784C1273.74 99.784 1277.03 98.9307 1279.84 97.224C1282.66 95.5173 1284.88 93.128 1286.5 90.056C1288.12 86.8987 1288.93 83.1867 1288.93 78.92C1288.93 74.6533 1288.12 70.984 1286.5 67.912C1284.88 64.7547 1282.66 62.3227 1279.84 60.616C1277.03 58.9093 1273.79 58.056 1270.12 58.056C1266.36 58.056 1263.03 58.9093 1260.13 60.616C1257.32 62.3227 1255.1 64.7547 1253.48 67.912C1251.94 70.984 1251.17 74.6533 1251.17 78.92C1251.17 83.1867 1251.98 86.8987 1253.6 90.056C1255.23 93.128 1257.44 95.5173 1260.26 97.224C1263.08 98.9307 1266.32 99.784 1269.99 99.784ZM1345.31 110.28C1339.17 110.28 1333.7 109 1328.93 106.44C1324.15 103.795 1320.44 100.125 1317.79 95.432C1315.14 90.7387 1313.82 85.2347 1313.82 78.92C1313.82 72.6053 1315.14 67.1013 1317.79 62.408C1320.44 57.7147 1324.15 54.088 1328.93 51.528C1333.7 48.8827 1339.17 47.56 1345.31 47.56C1351.54 47.56 1357 48.8827 1361.69 51.528C1366.47 54.088 1370.18 57.7147 1372.83 62.408C1375.48 67.1013 1376.8 72.6053 1376.8 78.92C1376.8 85.2347 1375.48 90.7387 1372.83 95.432C1370.18 100.125 1366.47 103.795 1361.69 106.44C1357 109 1351.54 110.28 1345.31 110.28ZM1345.31 99.784C1349.15 99.784 1352.52 98.9307 1355.42 97.224C1358.32 95.5173 1360.54 93.128 1362.08 90.056C1363.7 86.8987 1364.51 83.1867 1364.51 78.92C1364.51 74.6533 1363.7 70.984 1362.08 67.912C1360.54 64.7547 1358.32 62.3227 1355.42 60.616C1352.52 58.9093 1349.15 58.056 1345.31 58.056C1341.47 58.056 1338.1 58.9093 1335.2 60.616C1332.3 62.3227 1330.04 64.7547 1328.41 67.912C1326.88 70.984 1326.11 74.6533 1326.11 78.92C1326.11 83.1867 1326.88 86.8987 1328.41 90.056C1330.04 93.128 1332.3 95.5173 1335.2 97.224C1338.1 98.9307 1341.47 99.784 1345.31 99.784ZM1418.25 110.28C1412.11 110.28 1406.64 109 1401.87 106.44C1397.09 103.795 1393.38 100.125 1390.73 95.432C1388.08 90.7387 1386.76 85.2347 1386.76 78.92C1386.76 72.6053 1388.08 67.1013 1390.73 62.408C1393.38 57.7147 1397.09 54.088 1401.87 51.528C1406.64 48.8827 1412.11 47.56 1418.25 47.56C1422.6 47.56 1426.53 48.2 1430.03 49.48C1433.61 50.76 1436.81 52.552 1439.63 54.856L1435.27 63.944C1432.54 61.9813 1429.73 60.5307 1426.83 59.592C1423.92 58.568 1421.07 58.056 1418.25 58.056C1414.41 58.056 1411.04 58.9093 1408.14 60.616C1405.24 62.3227 1402.98 64.712 1401.35 67.784C1399.82 70.856 1399.05 74.568 1399.05 78.92C1399.05 83.272 1399.82 86.984 1401.35 90.056C1402.98 93.128 1405.24 95.5173 1408.14 97.224C1411.04 98.9307 1414.41 99.784 1418.25 99.784C1421.07 99.784 1423.92 99.3147 1426.83 98.376C1429.73 97.352 1432.54 95.8587 1435.27 93.896L1439.63 102.984C1436.81 105.288 1433.61 107.08 1430.03 108.36C1426.53 109.64 1422.6 110.28 1418.25 110.28ZM1473.53 110.28C1468.92 110.28 1464.61 109.597 1460.6 108.232C1456.59 106.781 1452.71 104.733 1448.95 102.088L1453.94 92.616C1457.7 95.176 1461.15 97.096 1464.31 98.376C1467.47 99.5707 1470.63 100.168 1473.78 100.168C1478.14 100.168 1481.38 99.528 1483.51 98.248C1485.73 96.8827 1486.84 94.8773 1486.84 92.232C1486.84 90.0133 1486.16 88.392 1484.79 87.368C1483.51 86.2587 1481.21 85.4053 1477.88 84.808L1467.64 82.888C1462.09 81.864 1457.91 80.0293 1455.1 77.384C1452.28 74.6533 1450.87 71.1547 1450.87 66.888C1450.87 63.3893 1451.73 60.1893 1453.43 57.288C1455.22 54.3013 1457.87 51.9547 1461.37 50.248C1464.87 48.456 1469.26 47.56 1474.55 47.56C1478.9 47.56 1483 48.2 1486.84 49.48C1490.68 50.76 1494.14 52.5093 1497.21 54.728L1492.34 63.816C1489.7 62.024 1486.93 60.5733 1484.02 59.464C1481.12 58.2693 1478.09 57.672 1474.94 57.672C1471.27 57.672 1468.37 58.312 1466.23 59.592C1464.18 60.7867 1463.16 62.7493 1463.16 65.48C1463.16 67.272 1463.8 68.68 1465.08 69.704C1466.36 70.6427 1468.49 71.4107 1471.48 72.008L1481.72 73.928C1487.35 74.952 1491.66 76.7867 1494.65 79.432C1497.63 82.0773 1499.13 85.9173 1499.13 90.952C1499.13 96.584 1496.95 101.235 1492.6 104.904C1488.25 108.488 1481.89 110.28 1473.53 110.28Z" fill="url(#paint1_linear_313_6)"/>
<defs>
<linearGradient id="paint0_linear_313_6" x1="19.9053" y1="16.9854" x2="149.328" y2="154.507" gradientUnits="userSpaceOnUse">
<stop stop-color="#FF1300"/>
<stop offset="1" stop-color="#FF6E01"/>
</linearGradient>
<linearGradient id="paint1_linear_313_6" x1="358.365" y1="14.321" x2="381.619" y2="277.815" gradientUnits="userSpaceOnUse">
<stop stop-color="#FF1300"/>
<stop offset="1" stop-color="#FF6E01"/>
</linearGradient>
</defs>
</svg>
